<?xml version="1.0" encoding="UTF-8" standalone="no"?>
<!DOCTYPE svg PUBLIC "-//W3C//DTD SVG 1.1//EN" "http://www.w3.org/Graphics/SVG/1.1/DTD/svg11.dtd">
<!-- 由 Microsoft Visio, SVG Export 生成 POD_RC.svg Page-1 -->
<svg xmlns="http://www.w3.org/2000/svg" xmlns:xlink="http://www.w3.org/1999/xlink" xmlns:ev="http://www.w3.org/2001/xml-events"
		xmlns:v="http://schemas.microsoft.com/visio/2003/SVGExtensions/" width="3.58508in" height="1.97246in"
		viewBox="0 0 258.126 142.017" xml:space="preserve" color-interpolation-filters="sRGB" class="st8">
	<v:documentProperties v:langID="2052" v:metric="true" v:viewMarkup="false">
		<v:userDefs>
			<v:ud v:nameU="msvNoAutoConnect" v:val="VT0(1):26"/>
		</v:userDefs>
	</v:documentProperties>

	<style type="text/css">
	<![CDATA[
		.st1 {fill:#000000}
		.st2 {stroke:#000000;stroke-linecap:butt;stroke-width:1.47402}
		.st3 {fill:#000000;font-family:Times New Roman;font-size:0.833336em}
		.st4 {stroke:#000000;stroke-linecap:round;stroke-linejoin:round;stroke-width:0.75}
		.st5 {fill:#000000;stroke:#000000;stroke-linecap:round;stroke-linejoin:round;stroke-width:0.24}
		.st6 {fill:none;stroke:none;stroke-linecap:round;stroke-linejoin:round;stroke-width:0.75}
		.st7 {fill:#000000;font-family:Times New Roman;font-size:1.00001em}
		.st8 {fill:none;fill-rule:evenodd;font-size:12px;overflow:visible;stroke-linecap:square;stroke-miterlimit:3}
	]]>
	</style>

	<g v:mID="0" v:index="1" v:groupContext="foregroundPage">
		<v:userDefs>
			<v:ud v:nameU="ResistorCount" v:prompt="" v:val="VT0(3):26"/>
			<v:ud v:nameU="AccumulatorCount" v:prompt="" v:val="VT0(2):26"/>
		</v:userDefs>
		<title>页-1</title>
		<v:pageProperties v:drawingScale="0.0393701" v:pageScale="0.0393701" v:drawingUnits="24" v:shadowOffsetX="8.50394"
				v:shadowOffsetY="-8.50394"/>
		<v:layer v:name="电气" v:index="0"/>
		<v:layer v:name="连接线" v:index="1"/>
		<g id="shape1-1" v:mID="1" v:groupContext="shape" v:layerMember="0" transform="translate(1.57337,115.541) rotate(-90)">
			<title>交流电源</title>
			<desc>u(t)</desc>
			<v:custProps>
				<v:cp v:nameU="Label" v:lbl="Label" v:prompt="" v:type="0" v:format="@" v:sortKey="" v:invis="false" v:ask="false"
						v:langID="2052" v:cal="0" v:val="VT4()"/>
				<v:cp v:nameU="Label" v:lbl="" v:prompt="" v:type="0" v:format="" v:sortKey="" v:invis="false" v:ask="false"
						v:langID="0" v:cal="0" v:val="VT4(u(t))"/>
			</v:custProps>
			<v:userDefs>
				<v:ud v:nameU="AT" v:prompt="Action toggle" v:val="VT0(0):26"/>
				<v:ud v:nameU="LimitHgt" v:val="VT0(0):26"/>
				<v:ud v:nameU="visDescription" v:val="VT4(AC current or voltage source.)"/>
				<v:ud v:nameU="visVersion" v:val="VT0(15):26"/>
				<v:ud v:nameU="Label" v:prompt="" v:val="VT4()"/>
				<v:ud v:nameU="SolSH" v:prompt="" v:val="VT4({2EE3C7D2-E26E-4B72-9E9C-5170DDBF261A})"/>
				<v:ud v:nameU="Label" v:prompt="" v:val="VT4(AC)"/>
			</v:userDefs>
			<v:textBlock v:margins="rect(1,1,1,1)" v:tabSpace="34.0157"/>
			<v:textRect cx="-1.47426" cy="123.592" width="18.95" height="14.0036" transform="rotate(90)"/>
			<path d="M25.12 122.83 L28.07 122.83 C28.07 126.49 25.73 129.15 22.51 129.15 C19.44 129.15 16.95 126.66 16.95 123.59
						 C16.95 122.15 15.78 120.98 14.34 120.98 C12.66 120.98 11.73 122.17 11.73 124.33 L8.78 124.33 C8.78 119.68
						 11.78 118.03 14.34 118.03 C17.41 118.03 19.9 120.53 19.9 123.59 C19.9 125.03 21.07 126.2 22.51 126.2 C24.07
						 126.2 25.12 124.85 25.12 122.83 Z" class="st1"/>
			<path d="M18.43 111.8 L18.43 105.17" class="st2"/>
			<path d="M18.43 142.02 L18.43 135.38" class="st2"/>
			<path d="M30.22 123.59 A11.7921 11.7921 -180 1 0 6.63 123.59 A11.7921 11.7921 -180 1 0 30.22 123.59" class="st2"/>
			<text x="116.37" y="4.47" transform="rotate(90)" class="st3" v:langID="2052"><v:paragraph v:horizAlign="1"/><v:tabList/>u(t)</text>		</g>
		<g id="group2-7" transform="translate(106.74,-84.5863)" v:mID="2" v:groupContext="group" v:layerMember="0">
			<v:custProps>
				<v:cp v:nameU="Label" v:lbl="标签" v:type="0" v:format="@" v:sortKey="" v:invis="false" v:ask="false" v:langID="2052"
						v:val="VT4()"/>
				<v:cp v:nameU="Slider_Position" v:lbl="滑块位置 (0-1)" v:type="2" v:langID="2052" v:val="VT0(0.5):26"/>
				<v:cp v:nameU="Label" v:lbl="" v:prompt="" v:type="0" v:format="" v:sortKey="" v:invis="false" v:ask="false"
						v:langID="0" v:cal="0" v:val="VT4(R)"/>
			</v:custProps>
			<v:userDefs>
				<v:ud v:nameU="Form" v:val="VT0(1):5"/>
				<v:ud v:nameU="SubType" v:val="VT0(0):26"/>
				<v:ud v:nameU="visDescription" v:val="VT4(Represents a fixed or variable resistor.)"/>
				<v:ud v:nameU="visVersion" v:val="VT0(15):26"/>
				<v:ud v:nameU="Label" v:prompt="" v:val="VT4()"/>
				<v:ud v:nameU="SolSH" v:prompt="" v:val="VT4({2EE3C7D2-E26E-4B72-9E9C-5170DDBF261A})"/>
				<v:ud v:nameU="Form" v:prompt="" v:val="VT0(0):5"/>
				<v:ud v:nameU="Label" v:prompt="" v:val="VT4(R1)"/>
			</v:userDefs>
			<title>电阻器</title>
			<desc>R</desc>
			<g id="shape3-8" v:mID="3" v:groupContext="shape" v:layerMember="0" transform="translate(-2.79265,2.58283)">
				<title>工作表.3</title>
			</g>
			<g id="shape4-10" v:mID="4" v:groupContext="shape" v:layerMember="0">
				<title>工作表.4</title>
				<path d="" class="st2"/>
				<path d="M36.85 123.5 L29.91 123.5 L28.14 126.92 L24.61 119.9 L20.34 126.92 L16.8 119.9 L12.53 126.92 L9 119.9 L7.23
							 123.5 L0 123.5" class="st2"/>
			</g>
			<g id="shape2-14" v:mID="2" v:groupContext="groupContent" v:layerMember="0">
				<v:textBlock v:margins="rect(1,1,1,1)" v:tabSpace="34.0157" v:verticalAlign="0"/>
				<v:textRect cx="18.4252" cy="139.806" width="11.18" height="14.0036"/>
				<text x="15.09" y="142.8" class="st3" v:langID="2052"><v:paragraph v:horizAlign="1"/><v:tabList/>R</text>			</g>
		</g>
		<g id="group5-16" transform="translate(164.85,-84.5863)" v:mID="5" v:groupContext="group" v:layerMember="0">
			<v:custProps>
				<v:cp v:nameU="Label" v:lbl="标签" v:type="0" v:format="@" v:sortKey="" v:invis="false" v:ask="false" v:langID="2052"
						v:val="VT4()"/>
				<v:cp v:nameU="Slider_Position" v:lbl="滑块位置 (0-1)" v:type="2" v:langID="2052" v:val="VT0(0.5):26"/>
				<v:cp v:nameU="Label" v:lbl="" v:prompt="" v:type="0" v:format="" v:sortKey="" v:invis="false" v:ask="false"
						v:langID="0" v:cal="0" v:val="VT4(R)"/>
			</v:custProps>
			<v:userDefs>
				<v:ud v:nameU="Form" v:val="VT0(1):5"/>
				<v:ud v:nameU="SubType" v:val="VT0(0):26"/>
				<v:ud v:nameU="visDescription" v:val="VT4(Represents a fixed or variable resistor.)"/>
				<v:ud v:nameU="visVersion" v:val="VT0(15):26"/>
				<v:ud v:nameU="Label" v:prompt="" v:val="VT4()"/>
				<v:ud v:nameU="SolSH" v:prompt="" v:val="VT4({2EE3C7D2-E26E-4B72-9E9C-5170DDBF261A})"/>
				<v:ud v:nameU="Form" v:prompt="" v:val="VT0(0):5"/>
				<v:ud v:nameU="Label" v:prompt="" v:val="VT4(R2)"/>
			</v:userDefs>
			<title>电阻器.5</title>
			<desc>R</desc>
			<g id="shape6-17" v:mID="6" v:groupContext="shape" v:layerMember="0" transform="translate(-2.79265,2.58283)">
				<title>工作表.6</title>
			</g>
			<g id="shape7-19" v:mID="7" v:groupContext="shape" v:layerMember="0">
				<title>工作表.7</title>
				<path d="" class="st2"/>
				<path d="M36.85 123.5 L29.91 123.5 L28.14 126.92 L24.61 119.9 L20.34 126.92 L16.8 119.9 L12.53 126.92 L9 119.9 L7.23
							 123.5 L0 123.5" class="st2"/>
			</g>
			<g id="shape5-23" v:mID="5" v:groupContext="groupContent" v:layerMember="0">
				<v:textBlock v:margins="rect(1,1,1,1)" v:tabSpace="34.0157" v:verticalAlign="0"/>
				<v:textRect cx="18.4252" cy="139.806" width="11.18" height="14.0036"/>
				<text x="15.09" y="142.8" class="st3" v:langID="2052"><v:paragraph v:horizAlign="1"/><v:tabList/>R</text>			</g>
		</g>
		<g id="shape8-25" v:mID="8" v:groupContext="shape" v:layerMember="0"
				transform="translate(190.647,57.4309) rotate(90) scale(-1,1)">
			<title>电容器</title>
			<desc>C</desc>
			<v:custProps>
				<v:cp v:nameU="Label" v:lbl="Label" v:prompt="" v:type="0" v:format="@" v:sortKey="" v:invis="false" v:ask="false"
						v:langID="2052" v:cal="0" v:val="VT4()"/>
				<v:cp v:nameU="Label" v:lbl="" v:prompt="" v:type="0" v:format="" v:sortKey="" v:invis="false" v:ask="false"
						v:langID="0" v:cal="0" v:val="VT4(C)"/>
			</v:custProps>
			<v:userDefs>
				<v:ud v:nameU="Form" v:val="VT0(0):26"/>
				<v:ud v:nameU="Type" v:val="VT0(0):26"/>
				<v:ud v:nameU="visDescription" v:val="VT4(Represents a fixed or variable capacitor.)"/>
				<v:ud v:nameU="visVersion" v:val="VT0(15):26"/>
				<v:ud v:nameU="Label" v:prompt="" v:val="VT4()"/>
				<v:ud v:nameU="SolSH" v:prompt="" v:val="VT4({2EE3C7D2-E26E-4B72-9E9C-5170DDBF261A})"/>
				<v:ud v:nameU="Form" v:prompt="" v:val="VT0(1):5"/>
				<v:ud v:nameU="Label" v:prompt="" v:val="VT4(C1)"/>
			</v:userDefs>
			<v:textBlock v:margins="rect(1,1,1,1)" v:tabSpace="34.0157" v:verticalAlign="0"/>
			<v:textRect cx="-7.00182" cy="123.592" width="11.18" height="14.0036" transform="rotate(-90)"/>
			<path d="M31.26 115.76 L31.26 119.1 C27.39 121.03 23.03 122.12 18.43 122.12 C13.77 122.12 9.37 121 5.47 119.04 L5.47
						 115.69 C9.28 117.9 13.71 119.17 18.43 119.17 C23.09 119.17 27.47 117.92 31.26 115.76 ZM5.47 128.01 L5.47
						 125.07 L31.26 125.07 L31.26 128.01 L5.47 128.01 Z" class="st1"/>
			<path d="M18.43 142.02 L18.43 127.65" class="st2"/>
			<path d="M18.43 119.54 L18.43 105.17" class="st2"/>
			<text x="-126.93" y="10" transform="rotate(90) scale(-1,1)" class="st3" v:langID="2052"><v:paragraph v:horizAlign="1"/><v:tabList/>C</text>		</g>
		<g id="shape9-30" v:mID="9" v:groupContext="shape" v:layerMember="1" transform="translate(85.4803,-95.971)">
			<title>动态连接线</title>
			<path d="M0 134.98 L5.31 134.98 L5.31 134.88 L21.26 134.88" class="st4"/>
		</g>
		<g id="shape10-33" v:mID="10" v:groupContext="shape" v:layerMember="1" transform="translate(143.591,-96.017)">
			<title>动态连接线.10</title>
			<path d="M0 134.93 L21.26 134.93" class="st4"/>
		</g>
		<g id="shape11-36" v:mID="11" v:groupContext="shape" v:layerMember="1" transform="translate(201.701,-103.104)">
			<title>动态连接线.11</title>
			<path d="M0 142.02 L18.43 142.02 L18.43 200.22 L-58.11 200.22" class="st4"/>
		</g>
		<g id="shape12-39" v:mID="12" v:groupContext="shape" v:layerMember="1" transform="translate(48.6299,-103.012)">
			<title>动态连接线.12</title>
			<path d="M0 142.02 L-10.63 142.02 L-10.63 200.13 L58.11 200.13" class="st4"/>
		</g>
		<g id="shape13-42" v:mID="13" v:groupContext="shape" v:layerMember="0" transform="translate(96.1102,-103.012)">
			<title>接合点</title>
			<v:userDefs>
				<v:ud v:nameU="visVersion" v:val="VT0(15):26"/>
				<v:ud v:nameU="visDescription" v:val="VT4(放置在两条线的连接处来表示一个连接。)"/>
			</v:userDefs>
			<path d="M-1.42 142.02 A1.41732 1.41732 0 0 1 1.42 142.02 A1.41732 1.41732 0 0 1 -1.42 142.02 Z" class="st5"/>
		</g>
		<g id="shape14-44" v:mID="14" v:groupContext="shape" v:layerMember="0" transform="translate(154.22,-103.012)">
			<title>接合点.14</title>
			<v:userDefs>
				<v:ud v:nameU="visVersion" v:val="VT0(15):26"/>
				<v:ud v:nameU="visDescription" v:val="VT4(放置在两条线的连接处来表示一个连接。)"/>
			</v:userDefs>
			<path d="M-1.42 142.02 A1.41732 1.41732 0 0 1 1.42 142.02 A1.41732 1.41732 0 0 1 -1.42 142.02 Z" class="st5"/>
		</g>
		<g id="shape15-46" v:mID="15" v:groupContext="shape" v:layerMember="0" transform="translate(212.331,-103.012)">
			<title>接合点.15</title>
			<v:userDefs>
				<v:ud v:nameU="visVersion" v:val="VT0(15):26"/>
				<v:ud v:nameU="visDescription" v:val="VT4(放置在两条线的连接处来表示一个连接。)"/>
			</v:userDefs>
			<path d="M-1.42 142.02 A1.41732 1.41732 0 0 1 1.42 142.02 A1.41732 1.41732 0 0 1 -1.42 142.02 Z" class="st5"/>
		</g>
		<g id="shape16-48" v:mID="16" v:groupContext="shape" transform="translate(71.3071,-107.263)">
			<title>工作表.16</title>
			<desc>U1</desc>
			<v:textBlock v:margins="rect(4,4,4,4)" v:tabSpace="42.5197"/>
			<v:textRect cx="24.8032" cy="134.931" width="49.61" height="14.1732"/>
			<rect x="0" y="127.844" width="49.6063" height="14.1732" class="st6"/>
			<text x="17.47" y="138.53" class="st7" v:langID="2052"><v:paragraph v:horizAlign="1"/><v:tabList/>U1</text>		</g>
		<g id="shape34-51" v:mID="34" v:groupContext="shape" transform="translate(131.543,-107.263)">
			<title>工作表.34</title>
			<desc>U2</desc>
			<v:textBlock v:margins="rect(4,4,4,4)" v:tabSpace="42.5197"/>
			<v:textRect cx="24.8032" cy="134.931" width="49.61" height="14.1732"/>
			<rect x="0" y="127.844" width="49.6063" height="14.1732" class="st6"/>
			<text x="17.47" y="138.53" class="st7" v:langID="2052"><v:paragraph v:horizAlign="1"/><v:tabList/>U2</text>		</g>
		<g id="shape35-54" v:mID="35" v:groupContext="shape" transform="translate(188.236,-107.263)">
			<title>工作表.35</title>
			<desc>U3</desc>
			<v:textBlock v:margins="rect(4,4,4,4)" v:tabSpace="42.5197"/>
			<v:textRect cx="24.8032" cy="134.931" width="49.61" height="14.1732"/>
			<rect x="0" y="127.844" width="49.6063" height="14.1732" class="st6"/>
			<text x="17.47" y="138.53" class="st7" v:langID="2052"><v:paragraph v:horizAlign="1"/><v:tabList/>U3</text>		</g>
	</g>
</svg>
